<?xml version="1.0" standalone="no"?>
<!DOCTYPE svg PUBLIC "-//W3C//DTD SVG 20010904//EN"
 "http://www.w3.org/TR/2001/REC-SVG-20010904/DTD/svg10.dtd">
<svg version="1.0" xmlns="http://www.w3.org/2000/svg"
 width="512.000000pt" height="512.000000pt" viewBox="0 0 512.000000 512.000000"
 preserveAspectRatio="xMidYMid meet">

<g transform="translate(0.000000,512.000000) scale(0.100000,-0.100000)"
fill="#000000" stroke="none">
<path d="M2430 5114 c-205 -20 -450 -99 -631 -205 -297 -173 -470 -467 -470
-799 0 -63 27 -438 61 -833 l60 -718 -20 -242 c-12 -132 -22 -242 -23 -243 -1
-1 -85 31 -187 72 -102 40 -193 74 -202 74 -9 0 -30 -12 -47 -26 l-31 -26 0
-150 c0 -89 5 -167 12 -191 7 -22 33 -62 58 -89 40 -44 61 -56 200 -112 l155
-63 -2 -34 c-2 -19 -10 -119 -19 -224 -10 -115 -14 -233 -11 -300 15 -293 174
-567 422 -728 68 -43 377 -182 500 -225 224 -76 448 -66 691 32 328 132 442
194 557 305 122 117 204 254 253 418 35 121 41 259 20 498 -9 105 -17 205 -19
224 l-2 34 155 63 c139 56 160 68 200 112 25 27 51 67 58 89 7 24 12 102 12
191 l0 150 -31 26 c-17 14 -38 26 -48 26 -9 0 -100 -33 -201 -74 -102 -41
-186 -73 -187 -72 -1 1 -11 110 -23 243 l-20 241 60 723 c34 398 61 774 61
834 -1 274 -127 534 -341 706 -155 124 -399 230 -630 274 -85 16 -308 26 -390
19z m347 -185 c120 -20 235 -59 378 -129 116 -57 153 -81 218 -141 112 -103
170 -194 219 -344 39 -119 35 -226 -32 -1022 l-61 -732 60 -724 c34 -399 61
-752 61 -785 0 -274 -168 -545 -415 -669 -101 -52 -391 -171 -457 -190 -87
-23 -289 -23 -376 0 -66 19 -356 138 -457 190 -237 119 -393 358 -411 629 -4
58 13 305 56 816 l61 733 -61 732 c-67 796 -71 903 -32 1022 49 150 107 241
219 344 130 120 400 241 603 270 41 6 89 13 105 15 48 7 248 -2 322 -15z
m-1417 -3100 l0 -79 -50 20 c-27 11 -74 29 -102 40 -79 31 -98 57 -98 135 l0
63 125 -50 125 -50 0 -79z m2632 32 c-17 -23 -41 -35 -184 -92 l-48 -19 0 79
0 79 123 49 122 49 3 -60 c2 -46 -1 -65 -16 -85z"/>
<path d="M2378 4445 c-143 -24 -269 -74 -463 -182 -124 -70 -167 -119 -184
-209 -8 -40 -2 -95 32 -301 l41 -253 756 0 756 0 41 253 c34 206 40 261 32
301 -20 110 -77 159 -329 286 -205 104 -459 143 -682 105z m337 -170 c44 -8
109 -24 145 -35 70 -22 274 -126 328 -167 40 -30 41 -54 7 -253 -14 -80 -25
-146 -25 -147 0 -2 -274 -3 -610 -3 -335 0 -610 1 -610 3 0 1 -11 67 -25 147
-34 199 -33 223 8 253 55 43 259 145 332 168 155 49 307 61 450 34z"/>
<path d="M1800 2472 c0 -4 -18 -186 -41 -403 -45 -432 -46 -502 -8 -569 62
-110 343 -252 584 -295 118 -21 332 -21 450 0 174 31 374 115 504 210 76 56
111 123 111 209 0 34 -18 239 -40 456 -22 217 -40 396 -40 398 0 6 -1520 1
-1520 -6z m1363 -169 c3 -5 20 -160 38 -345 24 -243 31 -345 24 -365 -7 -20
-33 -42 -88 -75 -331 -199 -726 -214 -1074 -42 -135 66 -173 98 -173 146 0 39
60 657 65 676 4 9 133 12 604 12 330 0 602 -3 604 -7z"/>
<path d="M1783 1106 l-62 -42 171 -256 170 -257 69 46 c38 25 69 48 69 49 0
14 -335 504 -344 503 -6 0 -39 -19 -73 -43z"/>
<path d="M3087 900 c-92 -137 -167 -252 -167 -255 0 -4 92 -68 127 -89 8 -4
69 78 183 248 l170 255 -60 41 c-33 22 -66 43 -73 46 -9 3 -70 -81 -180 -246z"/>
</g>
</svg>
